<svg width="270" height="226" viewBox="0 0 270 226" fill="none" xmlns="http://www.w3.org/2000/svg">
<path d="M196.914 111.004C197.469 110.07 197.476 108.908 196.931 107.968L181.756 81.7765C181.211 80.8361 180.2 80.2639 179.114 80.2808L147.921 80.7663C146.879 80.7825 145.921 81.3379 145.388 82.2336L129.454 109.053C128.899 109.987 128.893 111.149 129.438 112.089L144.613 138.28C145.157 139.221 146.168 139.793 147.255 139.776L178.447 139.292C179.489 139.276 180.448 138.72 180.98 137.824L196.914 111.004Z" fill="#FFE9B2"/>
<path d="M200.668 45.3681C201.223 44.4338 201.23 43.2722 200.685 42.3318L185.51 16.1408C184.965 15.2004 183.954 14.6282 182.868 14.6451L151.675 15.1305C150.633 15.1467 149.674 15.7022 149.142 16.5978L133.208 43.4171C132.653 44.3515 132.647 45.513 133.192 46.4534L148.367 72.6446C148.911 73.5849 149.922 74.1571 151.009 74.1402L182.201 73.6561C183.243 73.6399 184.202 73.0844 184.734 72.1887L200.668 45.3681Z" fill="#FFD773"/>
<path d="M260.11 76.0576C260.665 75.1232 260.671 73.9617 260.126 73.0213L244.951 46.8302C244.407 45.8898 243.396 45.3176 242.309 45.3345L211.116 45.82C210.075 45.8362 209.116 46.3916 208.584 47.2873L192.65 74.1066C192.095 75.0409 192.088 76.2025 192.633 77.1429L207.808 103.334C208.353 104.274 209.364 104.847 210.45 104.83L241.643 104.346C242.684 104.329 243.643 103.774 244.175 102.878L260.11 76.0576Z" fill="#FFD773"/>
<path d="M194.668 178.076C195.223 177.142 195.23 175.98 194.685 175.04L179.51 148.849C178.965 147.908 177.954 147.336 176.868 147.353L145.675 147.839C144.633 147.855 143.674 148.41 143.142 149.306L127.208 176.125C126.653 177.06 126.647 178.221 127.192 179.161L142.367 205.353C142.911 206.293 143.922 206.865 145.009 206.848L176.201 206.364C177.243 206.348 178.202 205.792 178.734 204.897L194.668 178.076Z" fill="#FFD773"/>
<path d="M256.219 142.413C256.774 141.479 256.78 140.317 256.236 139.377L241.061 113.186C240.516 112.245 239.505 111.673 238.418 111.69L207.226 112.175C206.184 112.192 205.225 112.747 204.693 113.643L188.759 140.462C188.204 141.396 188.198 142.558 188.742 143.498L203.917 169.689C204.462 170.63 205.473 171.202 206.56 171.185L237.752 170.701C238.794 170.685 239.752 170.129 240.285 169.234L256.219 142.413Z" fill="#FFE9B2"/>
<path d="M137.156 145.193C137.712 144.258 137.718 143.097 137.173 142.157L121.998 115.965C121.453 115.025 120.443 114.453 119.356 114.47L88.1631 114.955C87.1214 114.971 86.1627 115.527 85.6306 116.423L69.6966 143.242C69.1414 144.176 69.1351 145.338 69.6799 146.278L84.8548 172.469C85.3996 173.41 86.4104 173.982 87.4971 173.965L118.689 173.481C119.731 173.465 120.69 172.909 121.222 172.013L137.156 145.193Z" fill="#FFD773"/>
<path d="M76.8284 182.121C77.3835 181.187 77.3898 180.025 76.845 179.085L61.6701 152.894C61.1253 151.953 60.1144 151.381 59.0277 151.398L27.8349 151.883C26.7933 151.9 25.8346 152.455 25.3025 153.351L9.36843 180.17C8.8133 181.104 8.80694 182.266 9.35179 183.206L24.5267 209.397C25.0715 210.338 26.0823 210.91 27.169 210.893L58.3613 210.409C59.403 210.393 60.3618 209.837 60.8939 208.942L76.8284 182.121Z" fill="#FFD773"/>
<path d="M77.9143 115.157C78.4694 114.223 78.4758 113.061 77.9309 112.121L62.7561 85.9298C62.2112 84.9894 61.2003 84.4172 60.1136 84.4342L28.9209 84.9196C27.8792 84.9358 26.9205 85.4913 26.3884 86.3869L10.4544 113.206C9.89924 114.141 9.89287 115.302 10.4377 116.242L25.6126 142.434C26.1574 143.374 27.1683 143.946 28.2549 143.929L59.4473 143.445C60.489 143.429 61.4477 142.873 61.9799 141.978L77.9143 115.157Z" fill="#FFE9B2"/>
</svg>
