<svg width="213" height="164" viewBox="0 0 213 164" fill="none" xmlns="http://www.w3.org/2000/svg">
<path d="M202.354 46.8216C202.909 45.8872 202.916 44.7257 202.371 43.7853L186.634 16.6252C186.09 15.6848 185.079 15.1127 183.992 15.1296L151.652 15.6329C150.61 15.6491 149.651 16.2045 149.119 17.1002L132.599 44.9062C132.044 45.8406 132.037 47.0022 132.582 47.9425L148.318 75.1027C148.863 76.0431 149.874 76.6152 150.961 76.5984L183.301 76.0964C184.342 76.0802 185.301 75.5247 185.833 74.629L202.354 46.8216Z" fill="#FFEDBF"/>
<path d="M200.034 116.117C200.589 115.182 200.595 114.021 200.05 113.08L184.314 85.9202C183.769 84.9797 182.758 84.4076 181.672 84.4245L149.331 84.9278C148.29 84.944 147.331 85.4994 146.799 86.3951L130.278 114.201C129.723 115.136 129.717 116.297 130.262 117.237L145.998 144.398C146.543 145.338 147.554 145.91 148.64 145.893L180.98 145.391C182.022 145.375 182.981 144.82 183.513 143.924L200.034 116.117Z" fill="#FFE299"/>
<path d="M79.4049 118.822C79.96 117.887 79.9663 116.726 79.4215 115.785L63.6852 88.6252C63.1404 87.6848 62.1295 87.1127 61.0428 87.1296L28.7023 87.6329C27.6606 87.6491 26.702 88.2045 26.1698 89.1002L9.64953 116.906C9.0944 117.841 9.08804 119.002 9.63289 119.943L25.3692 147.103C25.914 148.043 26.9249 148.615 28.0115 148.598L60.3515 148.096C61.3933 148.08 62.352 147.525 62.8841 146.629L79.4049 118.822Z" fill="#FFE299"/>
<path d="M140.612 82.1436C141.167 81.2093 141.173 80.0477 140.629 79.1073L124.892 51.9473C124.347 51.0068 123.337 50.4347 122.25 50.4516L89.9093 50.9549C88.8677 50.9711 87.909 51.5265 87.3769 52.4222L70.8566 80.2283C70.3014 81.1626 70.2951 82.3242 70.8399 83.2646L86.5762 110.425C87.1211 111.365 88.1319 111.937 89.2186 111.92L121.559 111.418C122.6 111.402 123.559 110.847 124.091 109.951L140.612 82.1436Z" fill="#FFE299"/>
<path d="M79.4049 51.1126C79.96 50.1783 79.9663 49.0167 79.4215 48.0763L63.6852 20.9163C63.1404 19.9758 62.1295 19.4037 61.0428 19.4206L28.7023 19.9239C27.6606 19.9401 26.702 20.4955 26.1698 21.3912L9.64953 49.1973C9.0944 50.1316 9.08804 51.2932 9.63289 52.2336L25.3692 79.3937C25.914 80.3341 26.9249 80.9062 28.0115 80.8894L60.3515 80.3874C61.3933 80.3712 62.352 79.8157 62.8841 78.9201L79.4049 51.1126Z" fill="#FFEDBF"/>
</svg>
