<svg width="61" height="55" viewBox="0 0 61 55" fill="none" xmlns="http://www.w3.org/2000/svg">
<path d="M60.0402 16.7842L51.6513 2.28004C51.2511 1.58805 50.6762 1.01325 49.9841 0.613131C49.292 0.213011 48.507 0.0015877 47.7076 0H30.9585C30.1596 0.00222466 29.3752 0.213571 28.6833 0.613019C27.9914 1.01247 27.4162 1.58609 27.0148 2.27685L18.6418 16.7842C18.2418 17.4763 18.0313 18.2616 18.0312 19.061C18.0313 19.8604 18.2418 20.6457 18.6418 21.3379L27.0148 35.8516C27.4157 36.5428 27.9908 37.1167 28.6828 37.5163C29.3748 37.9158 30.1595 38.1269 30.9585 38.1284H47.7076C48.5067 38.1272 49.2915 37.9162 49.9835 37.5167C50.6756 37.1171 51.2507 36.543 51.6513 35.8516L60.0402 21.3379C60.4402 20.6457 60.6508 19.8604 60.6508 19.061C60.6508 18.2616 60.4402 17.4763 60.0402 16.7842Z" fill="#FFC022"/>
<path d="M50.0378 45.0387H25.149C24.8175 45.0394 24.4919 44.9508 24.2064 44.7822C23.921 44.6136 23.6862 44.3713 23.5267 44.0807L10.5426 20.4021C10.3863 20.1143 10.1558 19.8737 9.87501 19.7052C9.59422 19.5367 9.27342 19.4466 8.94598 19.4441H1.92064C1.44206 19.4516 0.978401 19.2775 0.62293 18.957C0.267458 18.6365 0.0465467 18.1933 0.00463394 17.7165C-0.0133678 17.4625 0.0212032 17.2075 0.106187 16.9674C0.191171 16.7274 0.324743 16.5074 0.498557 16.3213C0.672371 16.1352 0.882695 15.987 1.11639 15.8858C1.35008 15.7846 1.60212 15.7328 1.85677 15.7334H11.1174C11.4488 15.7334 11.7741 15.8222 12.0595 15.9907C12.3448 16.1592 12.5797 16.4012 12.7397 16.6914L25.7238 40.3668C25.8801 40.6545 26.1106 40.8952 26.3914 41.0636C26.6722 41.2321 26.993 41.3223 27.3204 41.3248H50.0889C50.3427 41.3247 50.5938 41.3767 50.8267 41.4777C51.0595 41.5786 51.2692 41.7264 51.4425 41.9117C51.6159 42.0971 51.7494 42.3161 51.8346 42.5551C51.9198 42.7942 51.9549 43.0482 51.9379 43.3015C51.8984 43.7772 51.6808 44.2205 51.3285 44.5426C50.9761 44.8647 50.5152 45.0419 50.0378 45.0387Z" fill="#12352F"/>
<path d="M26.6429 54.5935C28.6182 54.5935 30.2195 52.9922 30.2195 51.017C30.2195 49.0417 28.6182 47.4404 26.6429 47.4404C24.6677 47.4404 23.0664 49.0417 23.0664 51.017C23.0664 52.9922 24.6677 54.5935 26.6429 54.5935Z" fill="#12352F"/>
<path d="M50.1742 54.5935C52.1495 54.5935 53.7507 52.9922 53.7507 51.017C53.7507 49.0417 52.1495 47.4404 50.1742 47.4404C48.1989 47.4404 46.5977 49.0417 46.5977 51.017C46.5977 52.9922 48.1989 54.5935 50.1742 54.5935Z" fill="#12352F"/>
</svg>
